<svg width="80" height="80" viewBox="0 0 80 80" fill="none" xmlns="http://www.w3.org/2000/svg">
<g clip-path="url(#clip0_5973_53347)">
<path d="M0 40C0 21.1438 0 11.7157 5.85786 5.85786C11.7157 0 21.1438 0 40 0C58.8562 0 68.2843 0 74.1421 5.85786C80 11.7157 80 21.1438 80 40C80 58.8562 80 68.2843 74.1421 74.1421C68.2843 80 58.8562 80 40 80C21.1438 80 11.7157 80 5.85786 74.1421C0 68.2843 0 58.8562 0 40Z" fill="url(#paint0_radial_5973_53347)"/>
<path fill-rule="evenodd" clip-rule="evenodd" d="M39.5 27C36.1052 27 35.6802 27.0146 34.3469 27.075C29.8073 27.2833 27.2844 29.8021 27.076 34.3458C27.0146 35.6802 27 36.1052 27 39.5C27 42.8948 27.0146 43.3208 27.075 44.6542C27.2833 49.1938 29.8021 51.7167 34.3458 51.925C35.6802 51.9854 36.1052 52 39.5 52C42.8948 52 43.3208 51.9854 44.6542 51.925C49.1896 51.7167 51.7188 49.1979 51.924 44.6542C51.9854 43.3208 52 42.8948 52 39.5C52 36.1052 51.9854 35.6802 51.925 34.3469C51.7208 29.8115 49.199 27.2844 44.6552 27.076C43.3208 27.0146 42.8948 27 39.5 27ZM39.5 29.2531C42.8375 29.2531 43.2333 29.2656 44.5521 29.326C47.9396 29.4802 49.5219 31.0875 49.676 34.45C49.7365 35.7677 49.7479 36.1635 49.7479 39.501C49.7479 42.8396 49.7354 43.2344 49.676 44.5521C49.5208 47.9115 47.9427 49.5219 44.5521 49.676C43.2333 49.7365 42.8396 49.749 39.5 49.749C36.1625 49.749 35.7667 49.7365 34.449 49.676C31.0531 49.5208 29.4792 47.9062 29.325 44.551C29.2646 43.2333 29.2521 42.8385 29.2521 39.5C29.2521 36.1625 29.2656 35.7677 29.325 34.449C29.4802 31.0875 31.0583 29.4792 34.449 29.325C35.7677 29.2656 36.1625 29.2531 39.5 29.2531ZM33.0813 39.5C33.0813 35.9552 35.9552 33.0813 39.5 33.0813C43.0448 33.0813 45.9188 35.9552 45.9188 39.5C45.9188 43.0458 43.0448 45.9198 39.5 45.9198C35.9552 45.9198 33.0813 43.0448 33.0813 39.5ZM39.5 43.6667C37.199 43.6667 35.3333 41.8021 35.3333 39.5C35.3333 37.199 37.199 35.3333 39.5 35.3333C41.801 35.3333 43.6667 37.199 43.6667 39.5C43.6667 41.8021 41.801 43.6667 39.5 43.6667ZM44.6719 32.8281C44.6719 32 45.3438 31.3281 46.1729 31.3281C47.001 31.3281 47.6719 32 47.6719 32.8281C47.6719 33.6562 47.001 34.3281 46.1729 34.3281C45.3438 34.3281 44.6719 33.6562 44.6719 32.8281Z" fill="white"/>
</g>
<defs>
<radialGradient id="paint0_radial_5973_53347" cx="0" cy="0" r="1" gradientUnits="userSpaceOnUse" gradientTransform="translate(74.5 3.49999) rotate(132.926) scale(127.009)">
<stop stop-color="#395DFA"/>
<stop offset="0.0893499" stop-color="#544CED"/>
<stop offset="0.249497" stop-color="#903ACD"/>
<stop offset="0.366951" stop-color="#D53592"/>
<stop offset="0.444191" stop-color="#F4306D"/>
<stop offset="0.544156" stop-color="#F8443E"/>
<stop offset="0.648566" stop-color="#F86737"/>
<stop offset="0.728351" stop-color="#F88330"/>
<stop offset="0.860855" stop-color="#FBBB45"/>
<stop offset="1" stop-color="#FBE18A"/>
</radialGradient>
<clipPath id="clip0_5973_53347">
<rect width="80" height="80" fill="white"/>
</clipPath>
</defs>
</svg>
