<svg width="80" height="80" viewBox="0 0 80 80" fill="none" xmlns="http://www.w3.org/2000/svg">
<g clip-path="url(#clip0_5973_53343)">
<path d="M0 40C0 21.1438 0 11.7157 5.85786 5.85786C11.7157 0 21.1438 0 40 0C58.8562 0 68.2843 0 74.1421 5.85786C80 11.7157 80 21.1438 80 40C80 58.8562 80 68.2843 74.1421 74.1421C68.2843 80 58.8562 80 40 80C21.1438 80 11.7157 80 5.85786 74.1421C0 68.2843 0 58.8562 0 40Z" fill="#0E77B3"/>
<path d="M34.387 47.9531H30.1121V34.0013H34.387V47.9531ZM32.2232 32.2885C30.873 32.2885 30 31.3184 30 30.1186C30 28.8942 30.8994 27.9531 32.2782 27.9531C33.657 27.9531 34.5014 28.8942 34.5278 30.1186C34.5278 31.3184 33.657 32.2885 32.2232 32.2885ZM50 47.9531H45.7251L46.0051 40.2212C46.0051 38.4215 45.105 37.1993 43.5591 37.1993C42.3782 37.1993 41.6767 38.0267 41.3667 38.8229C41.2523 39.1061 41.2237 39.5075 41.2237 39.9067V47.9509H36.9467V38.4505C36.9467 36.7087 36.8917 35.2524 36.8345 33.9991H40.5487L40.7444 35.9371H40.8301C41.3931 35.0272 42.7719 33.6846 45.0786 33.6846C47.8912 33.6846 50 35.5959 50 39.7038V47.9531Z" fill="white"/>
</g>
<defs>
<clipPath id="clip0_5973_53343">
<rect width="80" height="80" fill="white"/>
</clipPath>
</defs>
</svg>
