<svg width="45" height="46" viewBox="0 0 45 46" fill="none" xmlns="http://www.w3.org/2000/svg">
<g filter="url(#filter0_d_6045_52853)">
<path d="M20.6309 2.40557C20.9551 1.48444 22.2719 1.5264 22.5367 2.4663L26.2932 15.7964C26.3815 16.1097 26.6167 16.3604 26.9237 16.4685L39.9876 21.066C40.9088 21.3901 40.8668 22.7069 39.9269 22.9718L26.5968 26.7282C26.2835 26.8165 26.0328 27.0518 25.9247 27.3588L21.3272 40.4227C21.0031 41.3438 19.6863 41.3019 19.4214 40.362L15.665 27.0319C15.5767 26.7186 15.3414 26.4679 15.0344 26.3598L1.97052 21.7623C1.04939 21.4381 1.09134 20.1214 2.03125 19.8565L15.3614 16.1C15.6746 16.0117 15.9254 15.7765 16.0334 15.4695L20.6309 2.40557Z" fill="black"/>
<path d="M23.018 2.33068C22.6207 0.920823 20.6455 0.857892 20.1593 2.23959L15.5618 15.3035C15.5077 15.457 15.3824 15.5746 15.2257 15.6188L1.89563 19.3752C0.48577 19.7725 0.422839 21.7477 1.80454 22.2339L14.8684 26.8314C15.022 26.8855 15.1396 27.0108 15.1837 27.1675L18.9402 40.4976C19.3375 41.9074 21.3126 41.9704 21.7989 40.5887L26.3964 27.5248C26.4504 27.3713 26.5758 27.2536 26.7324 27.2095L40.0625 23.453C41.4724 23.0557 41.5353 21.0806 40.1536 20.5943L27.0897 15.9968C26.9362 15.9428 26.8186 15.8174 26.7744 15.6608L23.018 2.33068Z" stroke="white"/>
</g>
<defs>
<filter id="filter0_d_6045_52853" x="0.302246" y="0.737549" width="44.3535" height="44.3533" filterUnits="userSpaceOnUse" color-interpolation-filters="sRGB">
<feFlood flood-opacity="0" result="BackgroundImageFix"/>
<feColorMatrix in="SourceAlpha" type="matrix" values="0 0 0 0 0 0 0 0 0 0 0 0 0 0 0 0 0 0 127 0" result="hardAlpha"/>
<feOffset dx="3" dy="3"/>
<feComposite in2="hardAlpha" operator="out"/>
<feColorMatrix type="matrix" values="0 0 0 0 0.658824 0 0 0 0 0.356863 0 0 0 0 0.847059 0 0 0 1 0"/>
<feBlend mode="normal" in2="BackgroundImageFix" result="effect1_dropShadow_6045_52853"/>
<feBlend mode="normal" in="SourceGraphic" in2="effect1_dropShadow_6045_52853" result="shape"/>
</filter>
</defs>
</svg>
